<mxfile host="app.diagrams.net" modified="2023-06-18T13:36:08.177Z" agent="Mozilla/5.0 (Macintosh; Intel Mac OS X 10_15_7) AppleWebKit/605.1.15 (KHTML, like Gecko) Version/17.0 Safari/605.1.15" etag="QiiWCnvyN2UtKFl9DTdE" version="21.4.0" type="github">
  <diagram name="Page-1" id="_vV8z-4bH4aNI5SvgFvr">
    <mxGraphModel dx="545" dy="465" grid="0" gridSize="10" guides="1" tooltips="1" connect="1" arrows="1" fold="1" page="0" pageScale="1" pageWidth="850" pageHeight="1100" math="0" shadow="0">
      <root>
        <mxCell id="0" />
        <mxCell id="1" parent="0" />
        <mxCell id="f-ifP4W6vxq-8xgNUm1K-2" value="通電" style="ellipse;whiteSpace=wrap;html=1;fontSize=16;" parent="1" vertex="1">
          <mxGeometry x="442" y="162" width="73" height="42" as="geometry" />
        </mxCell>
        <mxCell id="f-ifP4W6vxq-8xgNUm1K-3" value="初始化遊戲" style="rounded=0;whiteSpace=wrap;html=1;fontSize=16;" parent="1" vertex="1">
          <mxGeometry x="424.25" y="324" width="108.5" height="35" as="geometry" />
        </mxCell>
        <mxCell id="f-ifP4W6vxq-8xgNUm1K-6" value="開機動畫" style="rounded=0;whiteSpace=wrap;html=1;fontSize=16;" parent="1" vertex="1">
          <mxGeometry x="424.25" y="406" width="108.5" height="35" as="geometry" />
        </mxCell>
        <mxCell id="f-ifP4W6vxq-8xgNUm1K-7" value="" style="endArrow=classic;html=1;rounded=0;fontSize=12;startSize=8;endSize=8;curved=1;" parent="1" target="f-ifP4W6vxq-8xgNUm1K-6" edge="1">
          <mxGeometry width="50" height="50" relative="1" as="geometry">
            <mxPoint x="478.38" y="359" as="sourcePoint" />
            <mxPoint x="478.38" y="386" as="targetPoint" />
          </mxGeometry>
        </mxCell>
        <mxCell id="f-ifP4W6vxq-8xgNUm1K-8" value="箭頭引導動畫" style="rounded=0;whiteSpace=wrap;html=1;fontSize=16;" parent="1" vertex="1">
          <mxGeometry x="424.25" y="488" width="108.5" height="35" as="geometry" />
        </mxCell>
        <mxCell id="f-ifP4W6vxq-8xgNUm1K-9" value="" style="endArrow=classic;html=1;rounded=0;fontSize=12;startSize=8;endSize=8;curved=1;" parent="1" target="f-ifP4W6vxq-8xgNUm1K-8" edge="1">
          <mxGeometry width="50" height="50" relative="1" as="geometry">
            <mxPoint x="478.38" y="441" as="sourcePoint" />
            <mxPoint x="478.38" y="468" as="targetPoint" />
          </mxGeometry>
        </mxCell>
        <mxCell id="f-ifP4W6vxq-8xgNUm1K-11" value="" style="endArrow=classic;html=1;rounded=0;fontSize=12;startSize=8;endSize=8;curved=1;" parent="1" edge="1">
          <mxGeometry width="50" height="50" relative="1" as="geometry">
            <mxPoint x="478.69" y="523" as="sourcePoint" />
            <mxPoint x="478.31" y="570" as="targetPoint" />
          </mxGeometry>
        </mxCell>
        <mxCell id="WK4xcvCWI10CoFq3gpq9-1" value="兩搖桿&lt;br&gt;同時往前?" style="rhombus;whiteSpace=wrap;html=1;fontSize=16;" vertex="1" parent="1">
          <mxGeometry x="416" y="570" width="125" height="125" as="geometry" />
        </mxCell>
        <mxCell id="WK4xcvCWI10CoFq3gpq9-6" value="" style="endArrow=classic;html=1;rounded=0;fontSize=12;startSize=8;endSize=8;curved=1;entryX=0.5;entryY=0;entryDx=0;entryDy=0;" edge="1" parent="1" source="WK4xcvCWI10CoFq3gpq9-1">
          <mxGeometry width="50" height="50" relative="1" as="geometry">
            <mxPoint x="549" y="653" as="sourcePoint" />
            <mxPoint x="478.5" y="754.72" as="targetPoint" />
          </mxGeometry>
        </mxCell>
        <mxCell id="WK4xcvCWI10CoFq3gpq9-9" value="否" style="edgeLabel;html=1;align=center;verticalAlign=middle;resizable=0;points=[];fontSize=16;" vertex="1" connectable="0" parent="WK4xcvCWI10CoFq3gpq9-6">
          <mxGeometry x="-0.2483" relative="1" as="geometry">
            <mxPoint as="offset" />
          </mxGeometry>
        </mxCell>
        <mxCell id="WK4xcvCWI10CoFq3gpq9-12" value="初始化設定" style="rounded=0;whiteSpace=wrap;html=1;fontSize=16;" vertex="1" parent="1">
          <mxGeometry x="424.25" y="242" width="108.5" height="35" as="geometry" />
        </mxCell>
        <mxCell id="WK4xcvCWI10CoFq3gpq9-13" value="" style="endArrow=classic;html=1;rounded=0;fontSize=12;startSize=8;endSize=8;curved=1;" edge="1" parent="1">
          <mxGeometry width="50" height="50" relative="1" as="geometry">
            <mxPoint x="478.38" y="277" as="sourcePoint" />
            <mxPoint x="478" y="324" as="targetPoint" />
          </mxGeometry>
        </mxCell>
        <mxCell id="WK4xcvCWI10CoFq3gpq9-16" value="" style="endArrow=classic;html=1;rounded=0;fontSize=12;startSize=8;endSize=8;curved=1;exitX=0.5;exitY=1;exitDx=0;exitDy=0;" edge="1" parent="1" source="f-ifP4W6vxq-8xgNUm1K-2">
          <mxGeometry width="50" height="50" relative="1" as="geometry">
            <mxPoint x="479" y="205" as="sourcePoint" />
            <mxPoint x="478.31" y="242" as="targetPoint" />
          </mxGeometry>
        </mxCell>
        <mxCell id="WK4xcvCWI10CoFq3gpq9-19" value="球放中間" style="rounded=0;whiteSpace=wrap;html=1;fontSize=16;" vertex="1" parent="1">
          <mxGeometry x="623" y="242" width="108.5" height="35" as="geometry" />
        </mxCell>
        <mxCell id="WK4xcvCWI10CoFq3gpq9-20" value="" style="endArrow=classic;html=1;rounded=0;fontSize=12;startSize=8;endSize=8;curved=1;exitX=1;exitY=0.5;exitDx=0;exitDy=0;entryX=0;entryY=0.5;entryDx=0;entryDy=0;" edge="1" target="WK4xcvCWI10CoFq3gpq9-19" parent="1" source="WK4xcvCWI10CoFq3gpq9-34">
          <mxGeometry width="50" height="50" relative="1" as="geometry">
            <mxPoint x="613" y="656" as="sourcePoint" />
            <mxPoint x="478.38" y="722" as="targetPoint" />
            <Array as="points">
              <mxPoint x="572" y="786" />
              <mxPoint x="586" y="262" />
            </Array>
          </mxGeometry>
        </mxCell>
        <mxCell id="WK4xcvCWI10CoFq3gpq9-21" value="是" style="edgeLabel;html=1;align=center;verticalAlign=middle;resizable=0;points=[];fontSize=16;" vertex="1" connectable="0" parent="WK4xcvCWI10CoFq3gpq9-20">
          <mxGeometry x="-0.3827" y="3" relative="1" as="geometry">
            <mxPoint as="offset" />
          </mxGeometry>
        </mxCell>
        <mxCell id="WK4xcvCWI10CoFq3gpq9-30" value="擦除搖桿" style="rounded=0;whiteSpace=wrap;html=1;fontSize=16;" vertex="1" parent="1">
          <mxGeometry x="623" y="496" width="108.5" height="35" as="geometry" />
        </mxCell>
        <mxCell id="WK4xcvCWI10CoFq3gpq9-31" value="是" style="endArrow=classic;html=1;rounded=0;fontSize=12;startSize=8;endSize=8;curved=1;" edge="1" target="WK4xcvCWI10CoFq3gpq9-30" parent="1">
          <mxGeometry width="50" height="50" relative="1" as="geometry">
            <mxPoint x="677" y="449" as="sourcePoint" />
            <mxPoint x="677.13" y="476" as="targetPoint" />
          </mxGeometry>
        </mxCell>
        <mxCell id="WK4xcvCWI10CoFq3gpq9-34" value="直線方程換算&lt;br&gt;箭頭長度" style="rounded=0;whiteSpace=wrap;html=1;fontSize=16;" vertex="1" parent="1">
          <mxGeometry x="424.25" y="754.72" width="108.5" height="69.28" as="geometry" />
        </mxCell>
        <mxCell id="WK4xcvCWI10CoFq3gpq9-42" value="搖桿碰到球?" style="rhombus;whiteSpace=wrap;html=1;fontSize=16;" vertex="1" parent="1">
          <mxGeometry x="614.75" y="659" width="125" height="125" as="geometry" />
        </mxCell>
        <mxCell id="WK4xcvCWI10CoFq3gpq9-45" value="放大相似三角形" style="rounded=0;whiteSpace=wrap;html=1;fontSize=16;" vertex="1" parent="1">
          <mxGeometry x="802.63" y="704" width="147.25" height="35" as="geometry" />
        </mxCell>
        <mxCell id="WK4xcvCWI10CoFq3gpq9-46" value="" style="endArrow=classic;html=1;rounded=0;fontSize=12;startSize=8;endSize=8;curved=1;entryX=0;entryY=0.5;entryDx=0;entryDy=0;exitX=1;exitY=0.5;exitDx=0;exitDy=0;" edge="1" parent="1" target="WK4xcvCWI10CoFq3gpq9-45" source="WK4xcvCWI10CoFq3gpq9-42">
          <mxGeometry width="50" height="50" relative="1" as="geometry">
            <mxPoint x="773" y="738" as="sourcePoint" />
            <mxPoint x="810" y="621" as="targetPoint" />
          </mxGeometry>
        </mxCell>
        <mxCell id="WK4xcvCWI10CoFq3gpq9-78" value="否" style="edgeLabel;html=1;align=center;verticalAlign=middle;resizable=0;points=[];fontSize=16;" vertex="1" connectable="0" parent="WK4xcvCWI10CoFq3gpq9-46">
          <mxGeometry x="-0.1929" relative="1" as="geometry">
            <mxPoint as="offset" />
          </mxGeometry>
        </mxCell>
        <mxCell id="WK4xcvCWI10CoFq3gpq9-49" value="計算三角形" style="rounded=0;whiteSpace=wrap;html=1;fontSize=16;" vertex="1" parent="1">
          <mxGeometry x="822" y="771.86" width="108.5" height="35" as="geometry" />
        </mxCell>
        <mxCell id="WK4xcvCWI10CoFq3gpq9-50" value="搖桿位置變了?" style="rhombus;whiteSpace=wrap;html=1;fontSize=16;" vertex="1" parent="1">
          <mxGeometry x="614.75" y="324" width="125" height="125" as="geometry" />
        </mxCell>
        <mxCell id="WK4xcvCWI10CoFq3gpq9-51" value="" style="endArrow=classic;html=1;rounded=0;fontSize=12;startSize=8;endSize=8;curved=1;" edge="1" parent="1">
          <mxGeometry width="50" height="50" relative="1" as="geometry">
            <mxPoint x="677.2" y="277" as="sourcePoint" />
            <mxPoint x="677.07" y="324" as="targetPoint" />
          </mxGeometry>
        </mxCell>
        <mxCell id="WK4xcvCWI10CoFq3gpq9-55" value="" style="endArrow=classic;html=1;rounded=0;fontSize=12;startSize=8;endSize=8;curved=1;" edge="1" parent="1">
          <mxGeometry width="50" height="50" relative="1" as="geometry">
            <mxPoint x="677.2" y="531" as="sourcePoint" />
            <mxPoint x="677.07" y="578" as="targetPoint" />
          </mxGeometry>
        </mxCell>
        <mxCell id="WK4xcvCWI10CoFq3gpq9-56" value="數值&lt;br&gt;比剛才大?" style="rhombus;whiteSpace=wrap;html=1;fontSize=16;" vertex="1" parent="1">
          <mxGeometry x="259" y="726.86" width="125" height="125" as="geometry" />
        </mxCell>
        <mxCell id="WK4xcvCWI10CoFq3gpq9-57" value="" style="endArrow=classic;html=1;rounded=0;fontSize=12;startSize=8;endSize=8;curved=1;exitX=0;exitY=0.5;exitDx=0;exitDy=0;entryX=1;entryY=0.5;entryDx=0;entryDy=0;" edge="1" parent="1" source="WK4xcvCWI10CoFq3gpq9-34" target="WK4xcvCWI10CoFq3gpq9-56">
          <mxGeometry width="50" height="50" relative="1" as="geometry">
            <mxPoint x="402" y="714" as="sourcePoint" />
            <mxPoint x="391" y="790" as="targetPoint" />
          </mxGeometry>
        </mxCell>
        <mxCell id="WK4xcvCWI10CoFq3gpq9-58" value="擦除箭頭" style="rounded=0;whiteSpace=wrap;html=1;fontSize=16;" vertex="1" parent="1">
          <mxGeometry x="267.25" y="647" width="108.5" height="35" as="geometry" />
        </mxCell>
        <mxCell id="WK4xcvCWI10CoFq3gpq9-63" value="是" style="endArrow=classic;html=1;rounded=0;fontSize=12;startSize=8;endSize=8;curved=1;exitX=0.5;exitY=0;exitDx=0;exitDy=0;" edge="1" parent="1" source="WK4xcvCWI10CoFq3gpq9-56" target="WK4xcvCWI10CoFq3gpq9-58">
          <mxGeometry width="50" height="50" relative="1" as="geometry">
            <mxPoint x="321.69" y="679.86" as="sourcePoint" />
            <mxPoint x="360" y="723" as="targetPoint" />
          </mxGeometry>
        </mxCell>
        <mxCell id="WK4xcvCWI10CoFq3gpq9-65" value="繪制箭頭" style="rounded=0;whiteSpace=wrap;html=1;fontSize=16;" vertex="1" parent="1">
          <mxGeometry x="267.25" y="564.9999999999999" width="108.5" height="35" as="geometry" />
        </mxCell>
        <mxCell id="WK4xcvCWI10CoFq3gpq9-66" value="" style="endArrow=classic;html=1;rounded=0;fontSize=12;startSize=8;endSize=8;curved=1;exitX=0.5;exitY=0;exitDx=0;exitDy=0;" edge="1" target="WK4xcvCWI10CoFq3gpq9-65" parent="1">
          <mxGeometry width="50" height="50" relative="1" as="geometry">
            <mxPoint x="322" y="644.9999999999999" as="sourcePoint" />
            <mxPoint x="360" y="640.9999999999999" as="targetPoint" />
          </mxGeometry>
        </mxCell>
        <mxCell id="WK4xcvCWI10CoFq3gpq9-67" value="" style="endArrow=classic;html=1;rounded=0;fontSize=12;startSize=8;endSize=8;curved=1;exitX=1;exitY=0.5;exitDx=0;exitDy=0;" edge="1" parent="1" source="WK4xcvCWI10CoFq3gpq9-65">
          <mxGeometry width="50" height="50" relative="1" as="geometry">
            <mxPoint x="364" y="613" as="sourcePoint" />
            <mxPoint x="478" y="543" as="targetPoint" />
            <Array as="points">
              <mxPoint x="435" y="578" />
            </Array>
          </mxGeometry>
        </mxCell>
        <mxCell id="WK4xcvCWI10CoFq3gpq9-68" value="否" style="endArrow=classic;html=1;rounded=0;fontSize=12;startSize=8;endSize=8;curved=1;exitX=0;exitY=0.5;exitDx=0;exitDy=0;entryX=0;entryY=0.5;entryDx=0;entryDy=0;" edge="1" parent="1" source="WK4xcvCWI10CoFq3gpq9-56" target="WK4xcvCWI10CoFq3gpq9-65">
          <mxGeometry width="50" height="50" relative="1" as="geometry">
            <mxPoint x="284" y="689" as="sourcePoint" />
            <mxPoint x="334" y="639" as="targetPoint" />
            <Array as="points">
              <mxPoint x="222" y="588" />
            </Array>
          </mxGeometry>
        </mxCell>
        <mxCell id="WK4xcvCWI10CoFq3gpq9-69" value="繪制搖桿" style="rounded=0;whiteSpace=wrap;html=1;fontSize=16;" vertex="1" parent="1">
          <mxGeometry x="623" y="578" width="108.5" height="35" as="geometry" />
        </mxCell>
        <mxCell id="WK4xcvCWI10CoFq3gpq9-70" value="" style="endArrow=classic;html=1;rounded=0;fontSize=12;startSize=8;endSize=8;curved=1;entryX=0.5;entryY=0;entryDx=0;entryDy=0;exitX=0.5;exitY=1;exitDx=0;exitDy=0;" edge="1" parent="1" source="WK4xcvCWI10CoFq3gpq9-69" target="WK4xcvCWI10CoFq3gpq9-42">
          <mxGeometry width="50" height="50" relative="1" as="geometry">
            <mxPoint x="677.2" y="613" as="sourcePoint" />
            <mxPoint x="706" y="650" as="targetPoint" />
          </mxGeometry>
        </mxCell>
        <mxCell id="WK4xcvCWI10CoFq3gpq9-72" value="" style="endArrow=classic;html=1;rounded=0;fontSize=12;startSize=8;endSize=8;curved=1;entryX=0;entryY=0.5;entryDx=0;entryDy=0;exitX=0.5;exitY=1;exitDx=0;exitDy=0;" edge="1" parent="1" source="WK4xcvCWI10CoFq3gpq9-42" target="WK4xcvCWI10CoFq3gpq9-49">
          <mxGeometry width="50" height="50" relative="1" as="geometry">
            <mxPoint x="717" y="771" as="sourcePoint" />
            <mxPoint x="767" y="721" as="targetPoint" />
            <Array as="points">
              <mxPoint x="674" y="802" />
            </Array>
          </mxGeometry>
        </mxCell>
        <mxCell id="WK4xcvCWI10CoFq3gpq9-73" value="是" style="edgeLabel;html=1;align=center;verticalAlign=middle;resizable=0;points=[];fontSize=16;" vertex="1" connectable="0" parent="WK4xcvCWI10CoFq3gpq9-72">
          <mxGeometry x="-0.068" y="2" relative="1" as="geometry">
            <mxPoint as="offset" />
          </mxGeometry>
        </mxCell>
        <mxCell id="WK4xcvCWI10CoFq3gpq9-76" value="" style="endArrow=classic;html=1;rounded=0;fontSize=12;startSize=8;endSize=8;curved=1;exitX=0.5;exitY=0;exitDx=0;exitDy=0;entryX=0.5;entryY=1;entryDx=0;entryDy=0;" edge="1" parent="1" source="WK4xcvCWI10CoFq3gpq9-49" target="WK4xcvCWI10CoFq3gpq9-45">
          <mxGeometry width="50" height="50" relative="1" as="geometry">
            <mxPoint x="826" y="717" as="sourcePoint" />
            <mxPoint x="931" y="760" as="targetPoint" />
          </mxGeometry>
        </mxCell>
        <mxCell id="WK4xcvCWI10CoFq3gpq9-79" value="繪制球" style="rounded=0;whiteSpace=wrap;html=1;fontSize=16;" vertex="1" parent="1">
          <mxGeometry x="819.25" y="496" width="113" height="35" as="geometry" />
        </mxCell>
        <mxCell id="WK4xcvCWI10CoFq3gpq9-82" value="兩搖桿&lt;br&gt;同時往前?" style="rhombus;whiteSpace=wrap;html=1;fontSize=16;" vertex="1" parent="1">
          <mxGeometry x="259" y="398" width="125" height="125" as="geometry" />
        </mxCell>
        <mxCell id="WK4xcvCWI10CoFq3gpq9-84" value="" style="endArrow=classic;html=1;rounded=0;fontSize=12;startSize=8;endSize=8;curved=1;exitX=0.5;exitY=0;exitDx=0;exitDy=0;entryX=0.5;entryY=1;entryDx=0;entryDy=0;" edge="1" parent="1" source="WK4xcvCWI10CoFq3gpq9-45" target="WK4xcvCWI10CoFq3gpq9-79">
          <mxGeometry width="50" height="50" relative="1" as="geometry">
            <mxPoint x="894" y="565" as="sourcePoint" />
            <mxPoint x="944" y="515" as="targetPoint" />
          </mxGeometry>
        </mxCell>
        <mxCell id="WK4xcvCWI10CoFq3gpq9-85" value="進門？" style="rhombus;whiteSpace=wrap;html=1;fontSize=16;" vertex="1" parent="1">
          <mxGeometry x="811" y="332" width="125" height="125" as="geometry" />
        </mxCell>
        <mxCell id="WK4xcvCWI10CoFq3gpq9-86" value="" style="endArrow=classic;html=1;rounded=0;fontSize=12;startSize=8;endSize=8;curved=1;exitX=0.5;exitY=0;exitDx=0;exitDy=0;entryX=0.5;entryY=1;entryDx=0;entryDy=0;" edge="1" parent="1" source="WK4xcvCWI10CoFq3gpq9-79" target="WK4xcvCWI10CoFq3gpq9-85">
          <mxGeometry width="50" height="50" relative="1" as="geometry">
            <mxPoint x="820.25" y="464" as="sourcePoint" />
            <mxPoint x="875.25" y="459" as="targetPoint" />
          </mxGeometry>
        </mxCell>
        <mxCell id="WK4xcvCWI10CoFq3gpq9-90" value="否" style="endArrow=classic;html=1;rounded=0;fontSize=12;startSize=8;endSize=8;curved=1;exitX=0;exitY=0;exitDx=0;exitDy=0;entryX=1;entryY=0.5;entryDx=0;entryDy=0;" edge="1" parent="1" source="WK4xcvCWI10CoFq3gpq9-85" target="WK4xcvCWI10CoFq3gpq9-50">
          <mxGeometry width="50" height="50" relative="1" as="geometry">
            <mxPoint x="869" y="447" as="sourcePoint" />
            <mxPoint x="919" y="397" as="targetPoint" />
          </mxGeometry>
        </mxCell>
        <mxCell id="WK4xcvCWI10CoFq3gpq9-93" value="找贏家" style="rounded=0;whiteSpace=wrap;html=1;fontSize=16;" vertex="1" parent="1">
          <mxGeometry x="819.26" y="250" width="108.5" height="35" as="geometry" />
        </mxCell>
        <mxCell id="WK4xcvCWI10CoFq3gpq9-95" value="" style="endArrow=classic;html=1;rounded=0;fontSize=12;startSize=8;endSize=8;curved=1;exitX=0.5;exitY=0;exitDx=0;exitDy=0;entryX=0.5;entryY=1;entryDx=0;entryDy=0;" edge="1" parent="1" source="WK4xcvCWI10CoFq3gpq9-85" target="WK4xcvCWI10CoFq3gpq9-93">
          <mxGeometry width="50" height="50" relative="1" as="geometry">
            <mxPoint x="1010.25" y="284" as="sourcePoint" />
            <mxPoint x="1060.25" y="234" as="targetPoint" />
          </mxGeometry>
        </mxCell>
        <mxCell id="WK4xcvCWI10CoFq3gpq9-96" value="加分" style="rounded=0;whiteSpace=wrap;html=1;fontSize=16;" vertex="1" parent="1">
          <mxGeometry x="819.25" y="168" width="108.5" height="35" as="geometry" />
        </mxCell>
        <mxCell id="WK4xcvCWI10CoFq3gpq9-97" value="" style="endArrow=classic;html=1;rounded=0;fontSize=12;startSize=8;endSize=8;curved=1;exitX=0.5;exitY=0;exitDx=0;exitDy=0;entryX=0.5;entryY=1;entryDx=0;entryDy=0;" edge="1" target="WK4xcvCWI10CoFq3gpq9-96" parent="1">
          <mxGeometry width="50" height="50" relative="1" as="geometry">
            <mxPoint x="873.24" y="250" as="sourcePoint" />
            <mxPoint x="1060.24" y="152" as="targetPoint" />
          </mxGeometry>
        </mxCell>
        <mxCell id="WK4xcvCWI10CoFq3gpq9-98" value="得分動畫" style="rounded=0;whiteSpace=wrap;html=1;fontSize=16;" vertex="1" parent="1">
          <mxGeometry x="819.26" y="86" width="108.5" height="35" as="geometry" />
        </mxCell>
        <mxCell id="WK4xcvCWI10CoFq3gpq9-99" value="" style="endArrow=classic;html=1;rounded=0;fontSize=12;startSize=8;endSize=8;curved=1;exitX=0.5;exitY=0;exitDx=0;exitDy=0;entryX=0.5;entryY=1;entryDx=0;entryDy=0;" edge="1" target="WK4xcvCWI10CoFq3gpq9-98" parent="1">
          <mxGeometry width="50" height="50" relative="1" as="geometry">
            <mxPoint x="873.25" y="168" as="sourcePoint" />
            <mxPoint x="1060.25" y="70" as="targetPoint" />
          </mxGeometry>
        </mxCell>
        <mxCell id="WK4xcvCWI10CoFq3gpq9-100" value="3分？" style="rhombus;whiteSpace=wrap;html=1;fontSize=16;" vertex="1" parent="1">
          <mxGeometry x="1013.25" y="78" width="125" height="125" as="geometry" />
        </mxCell>
        <mxCell id="WK4xcvCWI10CoFq3gpq9-101" value="" style="endArrow=classic;html=1;rounded=0;fontSize=12;startSize=8;endSize=8;curved=1;entryX=0;entryY=0;entryDx=0;entryDy=0;exitX=1;exitY=0.5;exitDx=0;exitDy=0;" edge="1" parent="1" source="WK4xcvCWI10CoFq3gpq9-98" target="WK4xcvCWI10CoFq3gpq9-100">
          <mxGeometry width="50" height="50" relative="1" as="geometry">
            <mxPoint x="1000.25" y="124" as="sourcePoint" />
            <mxPoint x="1050.25" y="74" as="targetPoint" />
          </mxGeometry>
        </mxCell>
        <mxCell id="WK4xcvCWI10CoFq3gpq9-102" value="繪制球" style="rounded=0;whiteSpace=wrap;html=1;fontSize=16;" vertex="1" parent="1">
          <mxGeometry x="819.25" y="578" width="113" height="35" as="geometry" />
        </mxCell>
      </root>
    </mxGraphModel>
  </diagram>
</mxfile>
